<svg width="139" height="28" viewBox="0 0 139 28" fill="none" xmlns="http://www.w3.org/2000/svg">
<path d="M11.25 26.5L0 20.25V7.75L11.25 1.5L22.5 7.75V20.25L11.25 26.5ZM7.625 10.5625C8.10417 10.0625 8.65625 9.67708 9.28125 9.40625C9.90625 9.13542 10.5625 9 11.25 9C11.9375 9 12.5938 9.13542 13.2188 9.40625C13.8438 9.67708 14.3958 10.0625 14.875 10.5625L18.625 8.46875L11.25 4.375L3.875 8.46875L7.625 10.5625ZM10 22.9375V18.8438C8.875 18.5521 7.96875 17.9583 7.28125 17.0625C6.59375 16.1667 6.25 15.1458 6.25 14C6.25 13.7708 6.26042 13.5573 6.28125 13.3594C6.30208 13.1615 6.34375 12.9583 6.40625 12.75L2.5 10.5625V18.7812L10 22.9375ZM11.25 16.5C11.9375 16.5 12.526 16.2552 13.0156 15.7656C13.5052 15.276 13.75 14.6875 13.75 14C13.75 13.3125 13.5052 12.724 13.0156 12.2344C12.526 11.7448 11.9375 11.5 11.25 11.5C10.5625 11.5 9.97396 11.7448 9.48438 12.2344C8.99479 12.724 8.75 13.3125 8.75 14C8.75 14.6875 8.99479 15.276 9.48438 15.7656C9.97396 16.2552 10.5625 16.5 11.25 16.5ZM12.5 22.9375L20 18.7812V10.5625L16.0938 12.75C16.1562 12.9583 16.1979 13.1615 16.2188 13.3594C16.2396 13.5573 16.25 13.7708 16.25 14C16.25 15.1458 15.9062 16.1667 15.2188 17.0625C14.5312 17.9583 13.625 18.5521 12.5 18.8438V22.9375Z" fill="#A8F0D0"/>
<path d="M31.8148 21V6.44922H36.3923L38.7475 13.1291C38.8462 13.4389 38.9589 13.8419 39.0857 14.3382C39.2124 14.8345 39.3413 15.369 39.4723 15.9418C39.6033 16.5145 39.7259 17.0707 39.8401 17.6103C39.9543 18.1499 40.0484 18.6196 40.1225 19.0195H39.5383C39.6154 18.6286 39.7101 18.1648 39.8226 17.6282C39.935 17.0916 40.0567 16.5362 40.1877 15.962C40.3187 15.3878 40.4474 14.8503 40.5739 14.3495C40.7004 13.8487 40.813 13.4419 40.9117 13.1291L43.2339 6.44922H47.8212V21H44.8295V14.1398C44.8295 13.8227 44.8346 13.4273 44.8449 12.9535C44.8552 12.4797 44.8679 11.968 44.8829 11.4182C44.8979 10.8685 44.9121 10.314 44.9254 9.75473C44.9387 9.19548 44.9468 8.67034 44.9498 8.17932H45.143C45.0168 8.71995 44.8781 9.27751 44.7269 9.852C44.5756 10.4265 44.4241 10.9847 44.2724 11.5266C44.1206 12.0686 43.9761 12.5652 43.8389 13.0164C43.7016 13.4676 43.5839 13.8421 43.4857 14.1398L41.0776 21H38.5644L36.118 14.1398C36.0198 13.8451 35.9028 13.4744 35.7667 13.0276C35.6307 12.5809 35.4851 12.088 35.3298 11.5491C35.1746 11.0101 35.0197 10.4519 34.8652 9.87445C34.7107 9.29697 34.5626 8.73193 34.4209 8.17932H34.6547C34.6607 8.64938 34.6704 9.16104 34.6836 9.7143C34.6969 10.2676 34.7103 10.8213 34.7239 11.3756C34.7374 11.9298 34.7501 12.4476 34.7619 12.9288C34.7737 13.4101 34.7795 13.8137 34.7795 14.1398V21H31.8148ZM52.9318 21.2117C52.2382 21.2117 51.6168 21.0894 51.0678 20.8448C50.5187 20.6002 50.0869 20.2361 49.7724 19.7523C49.458 19.2686 49.3008 18.6669 49.3008 17.9473C49.3008 17.3363 49.4122 16.8268 49.6349 16.4186C49.8577 16.0104 50.1626 15.6816 50.5497 15.4324C50.9367 15.1832 51.3765 14.9936 51.869 14.8636C52.3615 14.7336 52.8775 14.643 53.417 14.592C54.0469 14.5284 54.5555 14.4686 54.9428 14.4125C55.3301 14.3564 55.6143 14.2686 55.7953 14.1491C55.9763 14.0296 56.0668 13.8523 56.0668 13.617V13.5689C56.0668 13.2574 56.0006 12.9938 55.8682 12.7782C55.7359 12.5627 55.5426 12.3975 55.2885 12.2828C55.0343 12.168 54.7219 12.1106 54.3512 12.1106C53.978 12.1106 53.6516 12.1674 53.3719 12.2809C53.0922 12.3944 52.8632 12.546 52.6848 12.7357C52.5064 12.9253 52.378 13.1383 52.2995 13.3746L49.6133 12.9287C49.7983 12.2928 50.1091 11.7534 50.5457 11.3105C50.9823 10.8676 51.5248 10.5293 52.1733 10.2957C52.8218 10.0621 53.5508 9.94531 54.3604 9.94531C54.9464 9.94531 55.5162 10.0147 56.0696 10.1536C56.623 10.2925 57.1196 10.5097 57.5596 10.8053C57.9996 11.1009 58.3489 11.4831 58.6075 11.952C58.8661 12.4208 58.9954 12.9868 58.9954 13.6498V21H56.2174V19.484H56.1213C55.9448 19.8223 55.7102 20.1212 55.4174 20.3809C55.1247 20.6405 54.7725 20.8439 54.3609 20.991C53.9493 21.1381 53.473 21.2117 52.9318 21.2117ZM53.7567 19.158C54.2178 19.158 54.6229 19.0662 54.972 18.8826C55.321 18.699 55.5942 18.4512 55.7917 18.1392C55.9891 17.8273 56.0879 17.4798 56.0879 17.0969V15.9155C55.9987 15.9755 55.867 16.0318 55.6929 16.0843C55.5189 16.1368 55.3247 16.1839 55.1103 16.2254C54.896 16.2669 54.6844 16.303 54.4756 16.3335C54.2667 16.364 54.0812 16.3908 53.919 16.4139C53.5591 16.4625 53.2427 16.5449 52.9698 16.6613C52.6969 16.7778 52.4849 16.9334 52.3338 17.1283C52.1828 17.3232 52.1073 17.5675 52.1073 17.8611C52.1073 18.1438 52.1786 18.3813 52.3211 18.5737C52.4637 18.7661 52.6586 18.9116 52.9057 19.0101C53.1528 19.1087 53.4365 19.158 53.7567 19.158ZM60.9918 21V10.082H63.8301V11.9832H63.9473C64.1456 11.3103 64.4807 10.8009 64.9526 10.4551C65.4245 10.1092 65.9666 9.93633 66.579 9.93633C66.7303 9.93633 66.8928 9.94486 67.0666 9.96192C67.2403 9.97897 67.3933 10.0031 67.5256 10.0342V12.6508C67.3962 12.6062 67.2071 12.57 66.9583 12.5422C66.7096 12.5144 66.4768 12.5005 66.26 12.5005C65.813 12.5005 65.4118 12.5972 65.0564 12.7907C64.701 12.9842 64.4228 13.252 64.2218 13.5942C64.0209 13.9364 63.9204 14.3338 63.9204 14.7864V21H60.9918ZM71.6065 17.802V14.2794H72.0501L75.6211 10.082H79.0065L74.2899 15.5576H73.5989L71.6065 17.802ZM68.9488 21V6.44922H71.8774V21H68.9488ZM75.7634 21L72.4909 16.212L74.4475 14.1332L79.2165 21H75.7634ZM84.5391 21.2133C83.4246 21.2133 82.4638 20.9851 81.6566 20.5286C80.8495 20.0722 80.2295 19.424 79.7968 18.5842C79.364 17.7443 79.1476 16.7487 79.1476 15.5973C79.1476 14.474 79.3626 13.4885 79.7927 12.6409C80.2227 11.7933 80.8309 11.1322 81.6173 10.6574C82.4037 10.1827 83.3286 9.94531 84.392 9.94531C85.105 9.94531 85.7712 10.0589 86.3907 10.2861C87.0101 10.5134 87.5536 10.856 88.0214 11.3141C88.4892 11.7721 88.8545 12.3477 89.1174 13.0408C89.3803 13.7339 89.5118 14.5481 89.5118 15.4834V16.3055H80.3496V14.4625H88.0846L86.7158 14.9566C86.7158 14.3881 86.629 13.8941 86.4553 13.4746C86.2817 13.0551 86.0245 12.7297 85.6838 12.4983C85.343 12.2669 84.9195 12.1512 84.4131 12.1512C83.9067 12.1512 83.4772 12.2684 83.1245 12.5028C82.7717 12.7371 82.5033 13.0551 82.3192 13.4567C82.1351 13.8582 82.043 14.3148 82.043 14.8264V16.1238C82.043 16.7553 82.1487 17.2859 82.3601 17.7154C82.5715 18.145 82.8688 18.4677 83.2521 18.6836C83.6353 18.8994 84.0799 19.0074 84.5857 19.0074C84.9275 19.0074 85.2382 18.9587 85.5177 18.8614C85.7972 18.7641 86.0375 18.6199 86.2386 18.4291C86.4398 18.2382 86.5929 18.0029 86.698 17.7232L89.3465 18.2131C89.1702 18.8162 88.8644 19.3428 88.4291 19.7929C87.9938 20.2429 87.4485 20.5922 86.793 20.8406C86.1375 21.0891 85.3862 21.2133 84.5391 21.2133ZM96.4407 10.082V12.3137H89.9629V10.082H96.4407ZM91.4664 7.48438H94.395V17.8041C94.395 18.1517 94.4723 18.408 94.6269 18.5728C94.7815 18.7376 95.0355 18.8201 95.3887 18.8201C95.5029 18.8201 95.6603 18.8062 95.861 18.7784C96.0616 18.7506 96.2143 18.7236 96.3188 18.6976L96.7381 20.8939C96.4117 20.9907 96.0881 21.058 95.7673 21.0958C95.4465 21.1336 95.1388 21.1525 94.8442 21.1525C93.749 21.1525 92.9122 20.8868 92.3339 20.3554C91.7556 19.8239 91.4664 19.0595 91.4664 18.0621V7.48438ZM97.9554 21V6.44922H102.533L104.888 13.1291C104.987 13.4389 105.1 13.8419 105.226 14.3382C105.353 14.8345 105.482 15.369 105.613 15.9418C105.744 16.5145 105.866 17.0707 105.981 17.6103C106.095 18.1499 106.189 18.6196 106.263 19.0195H105.679C105.756 18.6286 105.851 18.1648 105.963 17.6282C106.076 17.0916 106.197 16.5362 106.328 15.962C106.459 15.3878 106.588 14.8503 106.715 14.3495C106.841 13.8487 106.954 13.4419 107.052 13.1291L109.375 6.44922H113.962V21H110.97V14.1398C110.97 13.8227 110.975 13.4273 110.986 12.9535C110.996 12.4797 111.008 11.968 111.024 11.4182C111.039 10.8685 111.053 10.314 111.066 9.75473C111.079 9.19548 111.087 8.67034 111.09 8.17932H111.284C111.157 8.71995 111.019 9.27751 110.867 9.852C110.716 10.4265 110.565 10.9847 110.413 11.5266C110.261 12.0686 110.117 12.5652 109.979 13.0164C109.842 13.4676 109.725 13.8421 109.626 14.1398L107.218 21H104.705L102.259 14.1398C102.16 13.8451 102.043 13.4744 101.907 13.0276C101.771 12.5809 101.626 12.088 101.47 11.5491C101.315 11.0101 101.16 10.4519 101.006 9.87445C100.851 9.29697 100.703 8.73193 100.562 8.17932H100.795C100.801 8.64938 100.811 9.16104 100.824 9.7143C100.838 10.2676 100.851 10.8213 100.865 11.3756C100.878 11.9298 100.891 12.4476 100.902 12.9288C100.914 13.4101 100.92 13.8137 100.92 14.1398V21H97.9554ZM116.021 21V10.082H118.95V21H116.021ZM117.485 8.65882C117.044 8.65882 116.666 8.51139 116.351 8.21653C116.036 7.92168 115.879 7.56786 115.879 7.15506C115.879 6.73384 116.036 6.37753 116.351 6.08612C116.666 5.79471 117.044 5.649 117.485 5.649C117.928 5.649 118.307 5.79452 118.622 6.08555C118.937 6.37659 119.095 6.733 119.095 7.15479C119.095 7.56814 118.937 7.92215 118.622 8.21682C118.307 8.51148 117.928 8.65882 117.485 8.65882ZM123.87 14.6785V21H120.941V10.082H123.706L123.753 12.8076H123.577C123.864 11.897 124.299 11.1922 124.882 10.6935C125.466 10.1947 126.219 9.94531 127.14 9.94531C127.897 9.94531 128.557 10.1099 129.119 10.439C129.681 10.7681 130.117 11.2396 130.428 11.8536C130.739 12.4676 130.895 13.2017 130.895 14.0559V21H127.966V14.5662C127.966 13.8881 127.791 13.3563 127.442 12.9707C127.092 12.5851 126.608 12.3923 125.991 12.3923C125.579 12.3923 125.213 12.4825 124.893 12.6629C124.573 12.8433 124.322 13.1032 124.141 13.4427C123.96 13.7822 123.87 14.1942 123.87 14.6785ZM138.318 10.082V12.3137H131.84V10.082H138.318ZM133.343 7.48438H136.272V17.8041C136.272 18.1517 136.349 18.408 136.504 18.5728C136.658 18.7376 136.912 18.8201 137.266 18.8201C137.38 18.8201 137.537 18.8062 137.738 18.7784C137.939 18.7506 138.091 18.7236 138.196 18.6976L138.615 20.8939C138.289 20.9907 137.965 21.058 137.644 21.0958C137.323 21.1336 137.016 21.1525 136.721 21.1525C135.626 21.1525 134.789 20.8868 134.211 20.3554C133.633 19.8239 133.343 19.0595 133.343 18.0621V7.48438Z" fill="#A8F0D0"/>
</svg>
