<svg width="79" height="19" viewBox="0 0 79 19" fill="none" xmlns="http://www.w3.org/2000/svg">
<path d="M23.3428 6.17969H24.5459L26.8071 12.2114L29.063 6.17969H30.2661L27.2798 14H26.3237L23.3428 6.17969ZM22.7949 6.17969H23.939L24.1377 11.4004V14H22.7949V6.17969ZM29.6699 6.17969H30.8193V14H29.4712V11.4004L29.6699 6.17969ZM35.5674 12.8345V10.063C35.5674 9.85531 35.5298 9.67627 35.4546 9.52588C35.3794 9.37549 35.2648 9.25911 35.1108 9.17676C34.9604 9.0944 34.7707 9.05322 34.5415 9.05322C34.3302 9.05322 34.1476 9.08903 33.9937 9.16064C33.8397 9.23226 33.7197 9.32894 33.6338 9.45068C33.5479 9.57243 33.5049 9.71029 33.5049 9.86426H32.2158C32.2158 9.63509 32.2713 9.41309 32.3823 9.19824C32.4933 8.9834 32.6545 8.79183 32.8657 8.62354C33.077 8.45524 33.3294 8.32275 33.623 8.22607C33.9167 8.12939 34.2461 8.08105 34.6113 8.08105C35.0482 8.08105 35.4349 8.15446 35.7715 8.30127C36.1117 8.44808 36.3784 8.67008 36.5718 8.96729C36.7687 9.2609 36.8672 9.62972 36.8672 10.0737V12.6572C36.8672 12.9222 36.8851 13.1603 36.9209 13.3716C36.9603 13.5793 37.0158 13.7601 37.0874 13.9141V14H35.7607C35.6999 13.8604 35.6515 13.6831 35.6157 13.4683C35.5835 13.2498 35.5674 13.0386 35.5674 12.8345ZM35.7554 10.4658L35.7661 11.2661H34.8369C34.597 11.2661 34.3857 11.2894 34.2031 11.3359C34.0205 11.3789 33.8683 11.4434 33.7466 11.5293C33.6248 11.6152 33.5335 11.7191 33.4727 11.8408C33.4118 11.9626 33.3813 12.1004 33.3813 12.2544C33.3813 12.4084 33.4172 12.5498 33.4888 12.6787C33.5604 12.804 33.6642 12.9025 33.8003 12.9741C33.9399 13.0457 34.1082 13.0815 34.3052 13.0815C34.5701 13.0815 34.8011 13.0278 34.998 12.9204C35.1986 12.8094 35.3561 12.6751 35.4707 12.5176C35.5853 12.3564 35.6462 12.2043 35.6533 12.061L36.0723 12.6357C36.0293 12.7826 35.9559 12.9401 35.8521 13.1084C35.7482 13.2767 35.6121 13.4378 35.4438 13.5918C35.2791 13.7422 35.0804 13.8657 34.8477 13.9624C34.6185 14.0591 34.3535 14.1074 34.0527 14.1074C33.6732 14.1074 33.3348 14.0322 33.0376 13.8818C32.7404 13.7279 32.5076 13.522 32.3394 13.2642C32.1711 13.0028 32.0869 12.7074 32.0869 12.3779C32.0869 12.07 32.1442 11.7979 32.2588 11.5615C32.377 11.3216 32.5488 11.1211 32.7744 10.96C33.0036 10.7988 33.2829 10.6771 33.6123 10.5947C33.9417 10.5088 34.3177 10.4658 34.7402 10.4658H35.7554ZM39.5205 9.29492V14H38.2261V8.18848H39.4614L39.5205 9.29492ZM41.2983 8.15088L41.2876 9.354C41.2088 9.33968 41.1229 9.32894 41.0298 9.32178C40.9403 9.31462 40.8507 9.31104 40.7612 9.31104C40.5392 9.31104 40.3441 9.34326 40.1758 9.40771C40.0075 9.46859 39.866 9.55811 39.7515 9.67627C39.6405 9.79085 39.5545 9.9305 39.4937 10.0952C39.4328 10.2599 39.397 10.4443 39.3862 10.6484L39.0908 10.6699C39.0908 10.3047 39.1266 9.96631 39.1982 9.65479C39.2699 9.34326 39.3773 9.06934 39.5205 8.83301C39.6673 8.59668 39.8499 8.41227 40.0684 8.27979C40.2904 8.1473 40.5464 8.08105 40.8364 8.08105C40.9152 8.08105 40.9993 8.08822 41.0889 8.10254C41.182 8.11686 41.2518 8.13298 41.2983 8.15088ZM43.4146 5.75V14H42.1147V5.75H43.4146ZM47.0239 8.18848L44.4941 10.9922L43.1084 12.4102L42.77 11.3145L43.8174 10.02L45.4609 8.18848H47.0239ZM45.7402 14L43.855 11.2715L44.6714 10.3638L47.2388 14H45.7402ZM50.3003 14.1074C49.8706 14.1074 49.4821 14.0376 49.1348 13.8979C48.791 13.7547 48.4974 13.556 48.2539 13.3018C48.014 13.0475 47.8296 12.7485 47.7007 12.4048C47.5718 12.061 47.5073 11.6904 47.5073 11.293V11.0781C47.5073 10.6234 47.5736 10.2116 47.7061 9.84277C47.8385 9.47396 48.0229 9.15885 48.2593 8.89746C48.4956 8.63249 48.7749 8.43018 49.0972 8.29053C49.4194 8.15088 49.7686 8.08105 50.1445 8.08105C50.5599 8.08105 50.9233 8.15088 51.2349 8.29053C51.5464 8.43018 51.8042 8.62712 52.0083 8.88135C52.216 9.132 52.37 9.43099 52.4702 9.77832C52.5741 10.1257 52.626 10.5088 52.626 10.9277V11.481H48.1357V10.5518H51.3477V10.4497C51.3405 10.217 51.2939 9.99854 51.208 9.79443C51.1257 9.59033 50.9985 9.42562 50.8267 9.30029C50.6548 9.17497 50.4256 9.1123 50.1392 9.1123C49.9243 9.1123 49.7327 9.15885 49.5645 9.25195C49.3997 9.34147 49.2619 9.47217 49.1509 9.64404C49.0399 9.81592 48.9539 10.0236 48.8931 10.2671C48.8358 10.507 48.8071 10.7773 48.8071 11.0781V11.293C48.8071 11.5472 48.8411 11.7835 48.9092 12.002C48.9808 12.2168 49.0846 12.4048 49.2207 12.5659C49.3568 12.7271 49.5215 12.8542 49.7148 12.9473C49.9082 13.0368 50.1284 13.0815 50.3755 13.0815C50.687 13.0815 50.9645 13.0189 51.208 12.8936C51.4515 12.7682 51.6628 12.591 51.8418 12.3618L52.5239 13.0225C52.3986 13.2051 52.2357 13.3805 52.0352 13.5488C51.8346 13.7135 51.5894 13.8478 51.2993 13.9517C51.0129 14.0555 50.6799 14.1074 50.3003 14.1074ZM56.2998 8.18848V9.13379H53.0234V8.18848H56.2998ZM53.9688 6.76514H55.2632V12.394C55.2632 12.5731 55.2882 12.7109 55.3384 12.8076C55.3921 12.9007 55.4655 12.9634 55.5586 12.9956C55.6517 13.0278 55.7609 13.0439 55.8862 13.0439C55.9757 13.0439 56.0617 13.0386 56.144 13.0278C56.2264 13.0171 56.2926 13.0063 56.3428 12.9956L56.3481 13.9839C56.2407 14.0161 56.1154 14.0448 55.9722 14.0698C55.8325 14.0949 55.6714 14.1074 55.4888 14.1074C55.1916 14.1074 54.9284 14.0555 54.6992 13.9517C54.4701 13.8442 54.291 13.6706 54.1621 13.4307C54.0332 13.1908 53.9688 12.8721 53.9688 12.4746V6.76514ZM58.5933 9.37012V14H57.2988V8.18848H58.5181L58.5933 9.37012ZM58.3838 10.8794L57.9434 10.874C57.9434 10.473 57.9935 10.1024 58.0938 9.76221C58.194 9.42204 58.3408 9.12663 58.5342 8.87598C58.7275 8.62174 58.9674 8.4266 59.2539 8.29053C59.5439 8.15088 59.8787 8.08105 60.2583 8.08105C60.5233 8.08105 60.765 8.12044 60.9834 8.19922C61.2054 8.27441 61.397 8.39437 61.5581 8.55908C61.7228 8.7238 61.8481 8.93506 61.9341 9.19287C62.0236 9.45068 62.0684 9.76221 62.0684 10.1274V14H60.7739V10.2402C60.7739 9.95736 60.731 9.73535 60.645 9.57422C60.5627 9.41309 60.4427 9.2985 60.2852 9.23047C60.1312 9.15885 59.9468 9.12305 59.7319 9.12305C59.4884 9.12305 59.2808 9.1696 59.1089 9.2627C58.9406 9.35579 58.8027 9.48291 58.6953 9.64404C58.5879 9.80518 58.5091 9.99137 58.459 10.2026C58.4089 10.4139 58.3838 10.6395 58.3838 10.8794ZM61.9878 10.5356L61.3809 10.6699C61.3809 10.319 61.4292 9.98779 61.5259 9.67627C61.6261 9.36117 61.7712 9.08545 61.9609 8.84912C62.1543 8.60921 62.3924 8.42122 62.6753 8.28516C62.9582 8.14909 63.2822 8.08105 63.6475 8.08105C63.9447 8.08105 64.2096 8.12223 64.4424 8.20459C64.6787 8.28337 64.8792 8.40869 65.0439 8.58057C65.2087 8.75244 65.334 8.97624 65.4199 9.25195C65.5059 9.52409 65.5488 9.85352 65.5488 10.2402V14H64.249V10.2349C64.249 9.94124 64.2061 9.71387 64.1201 9.55273C64.0378 9.3916 63.9196 9.2806 63.7656 9.21973C63.6117 9.15527 63.4272 9.12305 63.2124 9.12305C63.0119 9.12305 62.8346 9.16064 62.6807 9.23584C62.5303 9.30745 62.4032 9.40951 62.2993 9.54199C62.1955 9.6709 62.1167 9.8195 62.063 9.98779C62.0129 10.1561 61.9878 10.3387 61.9878 10.5356ZM68.2666 8.18848V14H66.9668V8.18848H68.2666ZM66.8809 6.66309C66.8809 6.46615 66.9453 6.30322 67.0742 6.17432C67.2067 6.04183 67.3893 5.97559 67.6221 5.97559C67.8512 5.97559 68.0321 6.04183 68.1646 6.17432C68.297 6.30322 68.3633 6.46615 68.3633 6.66309C68.3633 6.85645 68.297 7.01758 68.1646 7.14648C68.0321 7.27539 67.8512 7.33984 67.6221 7.33984C67.3893 7.33984 67.2067 7.27539 67.0742 7.14648C66.9453 7.01758 66.8809 6.85645 66.8809 6.66309ZM70.9683 9.4292V14H69.6738V8.18848H70.8931L70.9683 9.4292ZM70.7373 10.8794L70.3184 10.874C70.3219 10.4622 70.3792 10.0845 70.4902 9.74072C70.6048 9.39697 70.7624 9.10156 70.9629 8.85449C71.167 8.60742 71.4105 8.41764 71.6934 8.28516C71.9762 8.14909 72.2913 8.08105 72.6387 8.08105C72.918 8.08105 73.1704 8.12044 73.396 8.19922C73.6252 8.27441 73.8203 8.39795 73.9814 8.56982C74.1462 8.7417 74.2715 8.96549 74.3574 9.24121C74.4434 9.51335 74.4863 9.84814 74.4863 10.2456V14H73.1865V10.2402C73.1865 9.96094 73.1453 9.74072 73.063 9.57959C72.9842 9.41488 72.8678 9.2985 72.7139 9.23047C72.5635 9.15885 72.3755 9.12305 72.1499 9.12305C71.9279 9.12305 71.7292 9.1696 71.5537 9.2627C71.3783 9.35579 71.2297 9.48291 71.1079 9.64404C70.9897 9.80518 70.8984 9.99137 70.834 10.2026C70.7695 10.4139 70.7373 10.6395 70.7373 10.8794ZM78.4717 8.18848V9.13379H75.1953V8.18848H78.4717ZM76.1406 6.76514H77.4351V12.394C77.4351 12.5731 77.4601 12.7109 77.5103 12.8076C77.564 12.9007 77.6374 12.9634 77.7305 12.9956C77.8236 13.0278 77.9328 13.0439 78.0581 13.0439C78.1476 13.0439 78.2336 13.0386 78.3159 13.0278C78.3983 13.0171 78.4645 13.0063 78.5146 12.9956L78.52 13.9839C78.4126 14.0161 78.2873 14.0448 78.144 14.0698C78.0044 14.0949 77.8433 14.1074 77.6606 14.1074C77.3634 14.1074 77.1003 14.0555 76.8711 13.9517C76.6419 13.8442 76.4629 13.6706 76.334 13.4307C76.2051 13.1908 76.1406 12.8721 76.1406 12.4746V6.76514Z" fill="black"/>
<circle cx="9.5" cy="9.5" r="9.5" fill="#C6D2FF"/>
<path d="M17 9.5C17 7.61774 16.2923 5.8043 15.0173 4.41965C13.7422 3.035 11.9932 2.18038 10.1173 2.02545C8.24148 1.87052 6.37593 2.42659 4.89103 3.58329C3.40613 4.74 2.41045 6.41275 2.10163 8.2695C1.79281 10.1262 2.19345 12.0312 3.22399 13.6063C4.25454 15.1814 5.83966 16.3114 7.66469 16.772C9.48972 17.2326 11.4212 16.9901 13.0758 16.0927C14.7303 15.1953 15.987 13.7086 16.5962 11.9277L15.2989 11.4838C14.801 12.9392 13.7741 14.1541 12.422 14.8874C11.07 15.6207 9.4916 15.8189 8.00023 15.4425C6.50886 15.0661 5.21354 14.1427 4.37139 12.8556C3.52925 11.5685 3.20187 10.0118 3.45423 8.49446C3.70658 6.97717 4.52023 5.61023 5.73366 4.66501C6.94708 3.71978 8.47157 3.26536 10.0045 3.39197C11.5374 3.51858 12.9667 4.21695 14.0086 5.34846C15.0505 6.47996 15.6288 7.96186 15.6288 9.5H17Z" fill="#7C86FF"/>
</svg>
